<svg width="30" height="40" viewBox="0 0 30 40" fill="none" xmlns="http://www.w3.org/2000/svg">
<path d="M2.01017 8.75661C3.12036 8.75661 4.02035 7.8468 4.02035 6.7245C4.02035 5.60219 3.12036 4.69238 2.01017 4.69238C0.899986 4.69238 0 5.60219 0 6.7245C0 7.8468 0.899986 8.75661 2.01017 8.75661Z" fill="#FFD15B"/>
<path d="M27.9899 8.75661C29.1001 8.75661 30.0001 7.8468 30.0001 6.7245C30.0001 5.60219 29.1001 4.69238 27.9899 4.69238C26.8797 4.69238 25.9797 5.60219 25.9797 6.7245C25.9797 7.8468 26.8797 8.75661 27.9899 8.75661Z" fill="#FFD15B"/>
<path d="M2.01025 26.8684C2.01025 34.1208 7.82598 40 15.0001 40C22.1742 40 27.9176 34.1208 27.9176 26.8684V14.0984C27.9176 13.7303 27.6224 13.4318 27.2582 13.4318C26.6878 13.4318 26.2144 13.465 25.7115 13.6593C24.0055 14.3184 22.794 15.9885 22.794 17.9447L22.7216 8.01425C22.7216 6.74511 21.9034 4.95493 20.7196 4.71002C20.5505 4.67501 20.3753 4.65666 20.1959 4.65666C18.7611 4.65666 17.598 5.83251 17.598 7.28298L17.5256 2.62624C17.5256 1.3571 16.7074 0.298189 15.5235 0.0532797C15.3545 0.0183501 15.1795 0 15.0001 0C13.5653 0 12.4021 1.17586 12.4021 2.62632V7.28306C12.4021 6.64845 12.1071 6.13956 11.7365 5.68563C11.3659 5.23163 10.9196 4.8326 10.3278 4.7101C10.1587 4.67509 9.98352 4.65674 9.80415 4.65674C8.36935 4.65674 7.20619 5.83259 7.20619 7.28306V17.9448C7.20619 16.9097 6.86695 16.686 6.29484 15.9185C5.95155 15.458 5.52442 14.3338 5.0363 14.0315C4.34732 13.6047 3.53693 13.3587 2.6697 13.3587C2.30554 13.3587 2.01025 13.6571 2.01025 14.0254V26.8684Z" fill="#B3DAFE"/>
<path d="M27.3303 13.3584C26.7599 13.3584 26.2146 13.4658 25.7117 13.6601C25.7798 13.765 25.8196 13.8902 25.8196 14.025V26.8681C25.8196 33.751 20.5811 39.3963 13.9148 39.9537C14.2727 39.9837 14.6343 39.9997 14.9999 39.9997C22.174 39.9997 27.9897 34.1205 27.9897 26.8681V14.025C27.9897 13.6568 27.6945 13.3584 27.3303 13.3584Z" fill="#67B2F1"/>
<path d="M21.1406 29.79C21.1406 30.7299 20.9339 31.6211 20.564 32.4196C20.472 32.6181 20.2904 32.7304 20.1789 32.9168C20.0842 33.0751 20.0623 33.3093 19.9545 33.458C18.9535 34.8374 17.4023 35.7834 15.6278 35.9656C15.4214 35.9867 15.2119 35.8366 15 35.8366C14.8034 35.8366 14.6091 35.9883 14.4172 35.97C12.6291 35.7999 11.064 34.8546 10.0542 33.47C9.95072 33.3282 9.93273 33.1012 9.84125 32.9504C9.72446 32.7579 9.53808 32.6389 9.44223 32.4332C9.06836 31.6313 8.85938 30.7352 8.85938 29.79C8.85938 28.8446 9.06836 27.9487 9.44223 27.1467C9.52527 26.9686 9.69604 26.8756 9.79492 26.7072C9.89953 26.529 9.93313 26.276 10.0543 26.1099C11.0641 24.7253 12.6292 23.7801 14.4173 23.6099C14.6091 23.5917 14.8035 23.7433 15.0001 23.7433C15.2065 23.7433 15.4105 23.5926 15.6117 23.6127C17.393 23.7908 18.9505 24.7383 19.9545 26.122C20.0704 26.2816 20.0992 26.5275 20.1998 26.6982C20.3033 26.8737 20.4779 26.9743 20.5642 27.1604C20.9339 27.9587 21.1406 28.8499 21.1406 29.79Z" fill="#E9F6FE"/>
<path d="M21.7088 21.0224C22.3081 21.0224 22.7939 20.5313 22.7939 19.9255V17.9439V17.9442V7.28264C22.7939 5.97955 21.8549 4.89874 20.6238 4.69238V19.9255C20.6238 20.5313 21.1096 21.0224 21.7088 21.0224Z" fill="#67B2F1"/>
<path d="M6.12095 21.0223C6.7202 21.0223 7.20601 20.5312 7.20601 19.9254V17.9442C7.20601 16.2882 6.33742 14.8374 5.03589 14.0312V19.9254C5.03589 20.5313 5.52169 21.0223 6.12095 21.0223Z" fill="#67B2F1"/>
<path d="M16.5128 21.0229C17.112 21.0229 17.5979 20.5317 17.5979 19.926V7.28314V2.62639C17.5979 1.3233 16.6589 0.242491 15.4277 0.0361328V19.926C15.4277 20.5318 15.9135 21.0229 16.5128 21.0229Z" fill="#67B2F1"/>
<path d="M11.317 21.0224C11.9162 21.0224 12.4021 20.5313 12.4021 19.9255V7.28264C12.4021 5.97955 11.4631 4.89874 10.2319 4.69238V19.9255C10.2319 20.5313 10.7177 21.0224 11.317 21.0224Z" fill="#67B2F1"/>
<path d="M20.5629 32.4198L16.1838 29.7907L20.5629 27.1615C20.3928 26.7944 20.1885 26.4469 19.9536 26.1232L15.6115 28.7301V23.6138C15.4103 23.5937 15.2064 23.583 14.9999 23.583C14.8034 23.583 14.6092 23.5933 14.4173 23.6116V28.7301L10.0549 26.1111C9.81929 26.4342 9.61413 26.7812 9.44319 27.1479L13.8451 29.7907L9.44312 32.4335C9.61405 32.8002 9.81921 33.1472 10.0549 33.4703L14.4172 30.8512V35.9697C14.6091 35.988 14.8033 35.9983 14.9999 35.9983C15.2063 35.9983 15.4102 35.9876 15.6115 35.9675V30.8512L19.9535 33.458C20.1885 33.1344 20.3928 32.787 20.5629 32.4198Z" fill="#FFE177"/>
</svg>
