<svg width="40" height="40" viewBox="0 0 40 40" fill="none" xmlns="http://www.w3.org/2000/svg">
<path d="M18.828 0.0332582C14.2938 0.293493 10.0444 2.06131 6.66242 5.09537C6.38843 5.34115 6.90132 6.37654 6.63906 6.63888C6.34632 6.93162 5.2825 6.4506 5.01031 6.75787C2.02836 10.1242 0.291245 14.3362 0.0334327 18.8278C0.0111671 19.2165 0.781167 19.6072 0.781167 19.9997C0.781167 20.3922 0.0111671 20.783 0.0334327 21.1717C0.292417 25.6846 2.04492 29.9154 5.05289 33.2896C5.31195 33.5801 6.10671 33.945 6.10671 33.945C6.10671 33.945 6.41968 34.6879 6.71039 34.9469C10.0846 37.9547 14.3152 39.7071 18.828 39.9661C19.2166 39.9884 19.9999 39.5107 19.9999 39.5107L20.7812 20.7529L20.0134 0.356539C20.0134 0.356539 19.2166 0.0109925 18.828 0.0332582Z" fill="#FDCB02"/>
<path d="M20 0.765116V35.1361C20 35.1361 20.7832 39.9887 21.1719 39.9664C25.701 39.7064 29.946 37.9422 33.3262 34.9143C33.6041 34.6654 33.0949 33.6267 33.3609 33.3608C33.6501 33.0716 34.7105 33.5564 34.9796 33.2531C37.9676 29.8849 39.7083 25.6685 39.9664 21.1719C39.9887 20.7832 38.4374 20.3924 38.4374 19.9999C38.4374 19.6074 39.9887 19.2166 39.9664 18.8279C39.7074 14.315 37.9549 10.0843 34.947 6.71004C34.688 6.41949 33.7694 6.21082 33.7694 6.21082C33.7694 6.21082 33.5802 5.31176 33.2895 5.05262C29.9152 2.04496 25.6845 0.293476 21.1718 0.0345694C20.8249 0.0146475 20 0.765116 20 0.765116Z" fill="#FDAE02"/>
<path d="M11.4005 9.74355L6.66312 5.09668C6.38905 5.34246 6.12015 5.59582 5.8578 5.85816C5.56499 6.15098 5.28366 6.45207 5.01147 6.75941L9.74327 11.4008L11.4005 9.74355Z" fill="#FDAE02"/>
<path d="M18.8281 33.333V39.9648C19.2169 39.9871 19.6074 39.9997 20 39.9997H20.0001L20.7813 37.3643L20.0001 33.333H18.8281Z" fill="#FDAE02"/>
<path d="M21.1718 33.333H20V39.9996C20.3925 39.9996 20.783 39.9871 21.1718 39.9647V33.333Z" fill="#FD8C02"/>
<path d="M18.8281 0.0349219V6.66672H20.0001L20.7813 2.88687L20.0001 0C20.0001 0 19.2169 0.0125781 18.8281 0.0349219Z" fill="#FDAE02"/>
<path d="M21.1718 0.0349219C20.783 0.0125781 20.3925 0 20 0V6.66672H21.1718V0.0349219Z" fill="#FD8C02"/>
<path d="M28.5994 30.2569L33.3255 34.9138C33.6034 34.6648 33.8762 34.4082 34.1421 34.1423C34.4313 33.853 34.7094 33.5557 34.9785 33.2523L30.2567 28.5996L28.5994 30.2569Z" fill="#FD8C02"/>
<path d="M33.3333 21.1719H39.965C39.9873 20.7831 39.9999 20.3926 39.9999 20C39.9999 19.6074 39.9873 19.2169 39.965 18.8281H33.3333V21.1719Z" fill="#FD8C02"/>
<path d="M6.66672 18.8281H0.0349219C0.0125781 19.2169 0 19.6074 0 20C0 20.3926 0.0125781 20.7831 0.0349219 21.1719H6.66672V18.8281Z" fill="#FDAE02"/>
<path d="M30.2567 11.4004L34.946 6.71105C34.6869 6.42043 34.4197 6.13535 34.142 5.8577C33.8644 5.58012 33.5794 5.31285 33.2887 5.05371L28.5994 9.74301L30.2567 11.4004Z" fill="#FD8C02"/>
<path d="M9.74333 28.5996L5.05396 33.289C5.31302 33.5796 5.58028 33.8647 5.85794 34.1423C6.13552 34.4199 6.4206 34.6872 6.7113 34.9463L11.4007 30.257L9.74333 28.5996Z" fill="#FDAE02"/>
<path d="M20 5.49512C12.0018 5.49512 5.49487 12.0021 5.49487 20.0003C5.49487 27.9985 12.0018 34.5055 20 34.5055H20.0001L20.7814 20.6797L20.0001 5.49512H20Z" fill="#FFDF8E"/>
<path d="M34.5052 20.0004C34.5052 12.0021 27.9981 5.4952 20 5.49512V34.5055C27.9981 34.5055 34.5052 27.9986 34.5052 20.0004Z" fill="#FFD664"/>
<path d="M18.8281 11.6162V14.9496H20L20.7812 13.3892L20 11.6162H18.8281Z" fill="#FDAE02"/>
<path d="M20 11.6162H21.1719V14.9496H20V11.6162Z" fill="#FD8C02"/>
<path d="M17.0649 28.3838L17.4367 17.4479C16.1472 16.1489 14.1289 15.8598 12.5022 16.8148C10.6586 17.8968 9.96809 20.2397 10.93 22.1486L14.0719 28.3838H17.0649Z" fill="#FDAE02"/>
<path d="M27.498 16.8148C25.8711 15.8598 23.8529 16.1489 22.5635 17.4478L23.0201 28.3837H25.9281L29.0701 22.1485C30.032 20.2396 29.3414 17.8967 27.498 16.8148Z" fill="#FD8C02"/>
<path d="M17.0649 28.3837H20.0252L20.7813 21.2513L20 13.7773C18.6166 13.7773 17.3134 14.3852 16.4243 15.445C15.5352 16.5048 15.1633 17.8939 15.4049 19.2622L17.0649 28.3837Z" fill="#FDCB02"/>
<path d="M23.0201 28.3837L24.5963 19.2561C24.8367 17.8938 24.4648 16.5047 23.5756 15.4449C22.6866 14.3852 21.3834 13.7773 20 13.7773V28.3838H23.0201V28.3837Z" fill="#FDAE02"/>
</svg>
