<svg width="20" height="20" viewBox="0 0 20 20" fill="none" xmlns="http://www.w3.org/2000/svg">
<path fill-rule="evenodd" clip-rule="evenodd" d="M0.792725 4.29297C0.792725 1.66776 0.820834 0.792969 4.29273 0.792969C7.76462 0.792969 7.79272 1.66776 7.79272 4.29297C7.79272 6.91818 7.8038 7.79297 4.29273 7.79297C0.781652 7.79297 0.792725 6.91818 0.792725 4.29297Z"  stroke-width="1.58537" stroke-linecap="round" stroke-linejoin="round"/>
<path fill-rule="evenodd" clip-rule="evenodd" d="M11.7927 4.29297C11.7927 1.66776 11.8208 0.792969 15.2927 0.792969C18.7646 0.792969 18.7927 1.66776 18.7927 4.29297C18.7927 6.91818 18.8038 7.79297 15.2927 7.79297C11.7817 7.79297 11.7927 6.91818 11.7927 4.29297Z"  stroke-width="1.58537" stroke-linecap="round" stroke-linejoin="round"/>
<path fill-rule="evenodd" clip-rule="evenodd" d="M0.792725 15.293C0.792725 12.6678 0.820834 11.793 4.29273 11.793C7.76462 11.793 7.79272 12.6678 7.79272 15.293C7.79272 17.9182 7.8038 18.793 4.29273 18.793C0.781652 18.793 0.792725 17.9182 0.792725 15.293Z"  stroke-width="1.58537" stroke-linecap="round" stroke-linejoin="round"/>
<path fill-rule="evenodd" clip-rule="evenodd" d="M11.7927 15.293C11.7927 12.6678 11.8208 11.793 15.2927 11.793C18.7646 11.793 18.7927 12.6678 18.7927 15.293C18.7927 17.9182 18.8038 18.793 15.2927 18.793C11.7817 18.793 11.7927 17.9182 11.7927 15.293Z"  stroke-width="1.58537" stroke-linecap="round" stroke-linejoin="round"/>
</svg>
